<?xml version="1.0" encoding="UTF-8"?>
<svg width="42px" height="37px" viewBox="0 0 42 37" version="1.1" xmlns="http://www.w3.org/2000/svg" xmlns:xlink="http://www.w3.org/1999/xlink">
    <!-- Generator: Sketch 52.6 (67491) - http://www.bohemiancoding.com/sketch -->
    <title>noun_Home_2367506_000000</title>
    <desc>Created with Sketch.</desc>
    <g id="Page-1" stroke="none" stroke-width="1" fill="none" fill-rule="evenodd">
        <g id="Home-Icon" transform="translate(-4.000000, -7.000000)" fill="#6F63BA">
            <g id="noun_Home_2367506_000000" transform="translate(4.626866, 6.957929)">
                <path d="M21.0447761,0.161812298 L40.5970149,18.4466019 C41.0447761,19.0938511 40.7462687,20.0647249 40,20.0647249 L34.6268657,20.0647249 L34.6268657,35.4368932 C34.6268657,35.9223301 34.1791045,36.2459547 33.7313433,36.2459547 L25.2238806,36.2459547 C24.7761194,36.2459547 24.4776119,35.9223301 24.4776119,35.4368932 L24.4776119,25.2427184 L16.5671642,25.2427184 L16.5671642,35.4368932 C16.5671642,35.9223301 16.119403,36.2459547 15.6716418,36.2459547 L7.1641791,36.2459547 C6.86567164,36.2459547 6.41791045,35.9223301 6.41791045,35.4368932 L6.41791045,20.0647249 L0.895522388,20.0647249 C0.149253731,20.0647249 -0.149253731,19.0938511 0.447761194,18.4466019 L20,0.161812298 C20.2985075,6.9388939e-18 20.7462687,6.9388939e-18 21.0447761,0.161812298 Z" id="Path"></path>
            </g>
        </g>
    </g>
</svg>