<?xml version="1.0" encoding="UTF-8"?>
<svg width="43px" height="40px" viewBox="0 0 43 40" version="1.1" xmlns="http://www.w3.org/2000/svg" xmlns:xlink="http://www.w3.org/1999/xlink">
    <!-- Generator: Sketch 52.6 (67491) - http://www.bohemiancoding.com/sketch -->
    <title>Artboard</title>
    <desc>Created with Sketch.</desc>
    <g id="Artboard" stroke="none" stroke-width="1" fill="none" fill-rule="evenodd">
        <g id="noun_paper-plane_867959_000000" transform="translate(-6.000000, 2.000000)" fill="#000000">
            <path d="M44.5514177,0.032 L16.3368329,10.2824 C16.1216292,10.359918 15.9850241,10.565109 16.0013023,10.7863918 C16.0175805,11.0076747 16.1828505,11.1921493 16.4072399,11.2395 L24.3406634,12.9154 L25.8431289,23.0721 C25.8725953,23.2673664 26.0181942,23.427638 26.214816,23.4812438 C26.4114378,23.5348496 26.6223124,23.4717648 26.7531398,23.3202 L31.766328,17.5094 L38.5388638,20.943 C38.6766818,21.0128423 38.8397176,21.0190992 38.9828384,20.9600387 C39.1259593,20.9009782 39.2339805,20.7828665 39.2769988,20.6384 L45.230535,0.6375 C45.2764489,0.482374846 45.242054,0.315383664 45.1381669,0.189041902 C45.0342798,0.0627001394 44.8736643,-0.00746948423 44.7068309,0.0006 C44.6538907,0.00352764618 44.6013635,0.0139842481 44.5514177,0.032 Z M43.995217,1.3175 L38.690517,19.7735 L30.483517,15.4647 C30.1275318,15.4647 29.5552765,16.0432075 28.7667511,17.2002225 L31.323317,17.0332 L27.337017,21.8185 L25.995217,12.4294 C25.9659775,12.2231102 25.8119047,12.0565665 25.608517,12.0114 L19.2608171,10.6227 L43.995217,1.3175 Z" id="Shape"></path>
            <path d="M44.172917,0.8742 L28.422917,14.6248 C28.3427361,14.6941557 28.286671,14.7872007 28.262817,14.8905 L26.512817,22.6408 L27.489317,22.8615 L29.202217,15.2694 L44.829217,1.6261 L44.172917,0.8742 Z" id="Path"></path>
            <polygon id="Path-2" points="44.237417 0.3254 25.237417 12.0759 25.764717 12.9256 44.764717 1.175"></polygon>
            <rect id="Rectangle" transform="translate(20.123123, 14.062463) rotate(15.000000) translate(-20.123123, -14.062463) " x="14.6231234" y="11.0624632" width="11" height="6" rx="2"></rect>
            <path d="M31.6584837,16.2280057 L37.9696451,19.5271461 C38.9342203,20.0313749 39.3184974,21.2143721 38.8343658,22.1891894 L38.1028172,23.6621901 C37.611501,24.6514738 36.4112376,25.0551562 35.4219539,24.56384 C35.4095796,24.5576944 35.3972692,24.5514207 35.3850248,24.54502 L29.0738634,21.2458796 C28.1092882,20.7416508 27.7250111,19.5586536 28.2091427,18.5838364 L28.9406914,17.1108356 C29.4320076,16.1215519 30.6322709,15.7178695 31.6215546,16.2091857 C31.633929,16.2153313 31.6462393,16.221605 31.6584837,16.2280057 Z" id="Rectangle-2"></path>
            <path d="M15.856126,31.3680856 C15.7051852,30.2611361 14.9253411,29.3425026 13.8575804,29.0138577 C12.7898197,28.6852127 11.6283899,29.0063435 10.881126,29.8368356 C9.9351231,29.4298218 8.8875354,29.3208117 7.878001,29.5243356 C7.51821815,28.9912652 7.01116983,28.5743347 6.418626,28.3243356 C6.59499023,27.8841413 6.68516535,27.4141699 6.684251,26.9399606 C6.67393917,24.8877927 5.00831907,23.2291534 2.956126,23.2274606 C2.61094804,23.2274606 2.331126,23.5072826 2.331126,23.8524606 C2.331126,24.1976385 2.61094804,24.4774606 2.956126,24.4774606 C4.32404285,24.4791823 5.43252927,25.5876687 5.434251,26.9555856 C5.43310228,27.4614961 5.27596153,27.9547434 4.984251,28.3680856 C4.85894115,28.5471324 4.83625369,28.7786276 4.92441857,28.9785958 C5.01258345,29.1785639 5.19879368,29.3179573 5.415501,29.3462106 C6.10903993,29.4389136 6.70626919,29.8815242 6.996751,30.5180856 C7.1219051,30.7876085 7.2021309,31.075788 7.234251,31.3712106 C7.234251,31.7163885 7.51407304,31.9962106 7.859251,31.9962106 C8.20442897,31.9962106 8.484251,31.7163885 8.484251,31.3712106 C8.47911906,31.1503315 8.44657841,30.9309446 8.387376,30.7180856 C9.21029647,30.6093514 10.0462381,30.7717128 10.768626,31.1805856 C11.065841,31.3486284 11.4429083,31.2470568 11.615501,30.9524606 C11.9306887,30.4045178 12.5374608,30.0918299 13.1666087,30.153128 C13.7957566,30.2144262 14.3307595,30.6383577 14.534251,31.2368356 C14.1040712,31.2596188 13.685381,31.3838338 13.312376,31.5993356 C13.0310366,31.7868599 12.9498344,32.1641192 13.1291074,32.4507869 C13.3083805,32.7374546 13.6831218,32.829581 13.974876,32.6587106 C14.3463178,32.493501 14.7564486,32.4350655 15.159251,32.4899606 C16.1672421,32.6931223 16.8622082,33.6204706 16.7742347,34.6449614 C16.6862613,35.6694522 15.8433714,36.4647441 14.815501,36.4930856 C14.470323,36.4930856 14.190501,36.7729076 14.190501,37.1180856 C14.190501,37.4632635 14.470323,37.7430856 14.815501,37.7430856 C16.4203535,37.7447688 17.7895223,36.5822115 18.0480691,34.9983214 C18.3066158,33.4144313 17.3782084,31.8768285 15.856126,31.3680856 Z" id="Path" transform="translate(10.211116, 30.485274) rotate(25.000000) translate(-10.211116, -30.485274) "></path>
            <path d="M36.8157982,29.7141278 C35.6585744,29.7151099 34.577087,30.2440659 33.9282932,31.1264081 C33.2794993,32.0087502 33.1477292,33.1297916 33.576475,34.11952 C33.021623,34.3350736 32.5468282,34.6945584 32.2099313,35.154181 C31.2646226,34.9785262 30.2836158,35.0725221 29.3978359,35.4236239 C28.6981057,34.7075592 27.6105547,34.4306746 26.6107146,34.714038 C25.6108745,34.9974014 24.8806364,35.7894632 24.7392971,36.7438944 C23.3326273,37.1936775 22.4808707,38.5096288 22.7205203,39.8628744 C22.96017,41.21612 24.221821,42.2147467 25.7108014,42.2297528 C26.0340225,42.2297528 26.296045,41.9884854 26.296045,41.6908669 C26.296045,41.3932485 26.0340225,41.151981 25.7108014,41.151981 C24.7277958,41.1484671 23.9112346,40.4528143 23.8311774,39.5506734 C23.7511202,38.6485324 24.4342021,37.8400472 25.4035485,37.6896391 C25.6965445,37.6448365 25.9066348,37.4050526 25.8922269,37.1318922 L25.8922269,37.0672259 C25.8913208,36.5218334 26.2361567,36.0261201 26.7745756,35.7988196 C27.3129945,35.5715191 27.9459472,35.6544463 28.3941432,36.0110095 C28.0806151,36.2759723 27.8149046,36.5852122 27.6069906,36.9271156 C27.5055832,37.0955753 27.5094823,37.3010534 27.6172193,37.4661482 C27.7249562,37.631243 27.9201631,37.7308727 28.1293074,37.7275078 C28.3384517,37.7241429 28.5297594,37.6182946 28.6311668,37.4498349 C28.8451651,37.0949192 29.1456637,36.7905539 29.5090322,36.5606732 C30.3655987,36.1197278 31.3813286,36.0223035 32.3182013,36.2912302 C32.6010762,36.3743779 32.9067441,36.2492865 33.0292723,36.0002318 C33.3012764,35.4513775 33.8605158,35.0697509 34.5099385,34.9898208 L34.530422,34.9898208 L34.5626104,34.9898208 C34.8578124,34.9438589 35.1610037,34.9717764 35.4404758,35.0706537 C35.7362014,35.17553 36.0688606,35.0446161 36.1909145,34.7753276 C36.3129685,34.5060392 36.1800708,34.1962183 35.8911133,34.0764092 C35.5293691,33.9407076 35.1401628,33.8782214 34.7498884,33.893188 C34.5850406,33.5961915 34.498809,33.2675079 34.4982336,32.9339711 C34.4966149,31.7534755 35.5337535,30.7948722 36.8157982,30.7918996 C37.1390193,30.7918996 37.4010417,30.5506322 37.4010417,30.2530137 C37.4010417,29.9553953 37.1390193,29.7141278 36.8157982,29.7141278 Z" id="Path"></path>
            <path d="M50.1354847,19 C48.9782609,19.0009821 47.8967735,19.5299381 47.2479797,20.4122802 C46.5991858,21.2946223 46.4674157,22.4156638 46.8961615,23.4053922 C46.3413096,23.6209458 45.8665147,23.9804306 45.5296178,24.4400531 C44.5843091,24.2643984 43.6033024,24.3583943 42.7175224,24.7094961 C42.0177922,23.9934314 40.9302412,23.7165468 39.9304011,23.9999102 C38.930561,24.2832736 38.200323,25.0753354 38.0589836,26.0297666 C36.6523138,26.4795497 35.8005572,27.795501 36.0402068,29.1487466 C36.2798565,30.5019922 37.5415075,31.5006189 39.0304879,31.515625 C39.353709,31.515625 39.6157315,31.2743576 39.6157315,30.9767391 C39.6157315,30.6791206 39.353709,30.4378532 39.0304879,30.4378532 C38.0474823,30.4343393 37.2309212,29.7386865 37.150864,28.8365456 C37.0708068,27.9344046 37.7538887,27.1259194 38.723235,26.9755113 C39.016231,26.9307087 39.2263214,26.6909248 39.2119134,26.4177644 L39.2119134,26.3530981 C39.2110073,25.8077056 39.5558432,25.3119923 40.0942621,25.0846918 C40.632681,24.8573913 41.2656337,24.9403185 41.7138297,25.2968817 C41.4003016,25.5618445 41.1345911,25.8710844 40.9266771,26.2129878 C40.8252697,26.3814475 40.8291688,26.5869255 40.9369058,26.7520204 C41.0446427,26.9171152 41.2398496,27.0167449 41.4489939,27.01338 C41.6581382,27.0100151 41.8494459,26.9041668 41.9508533,26.7357071 C42.1648517,26.3807914 42.4653502,26.0764261 42.8287187,25.8465453 C43.6852852,25.4055999 44.7010151,25.3081757 45.6378878,25.5771024 C45.9207628,25.6602501 46.2264306,25.5351587 46.3489588,25.286104 C46.620963,24.7372497 47.1802023,24.3556231 47.829625,24.2756929 L47.8501085,24.2756929 L47.8822969,24.2756929 C48.1774989,24.229731 48.4806902,24.2576486 48.7601623,24.3565258 C49.055888,24.4614022 49.3885471,24.3304883 49.510601,24.0611998 C49.632655,23.7919114 49.4997573,23.4820905 49.2107998,23.3622814 C48.8490556,23.2265798 48.4598493,23.1640935 48.0695749,23.1790601 C47.9047271,22.8820637 47.8184955,22.5533801 47.8179201,22.2198432 C47.8163014,21.0393477 48.85344,20.0807444 50.1354847,20.0777718 C50.4587058,20.0777718 50.7207282,19.8365044 50.7207282,19.5388859 C50.7207282,19.2412674 50.4587058,19 50.1354847,19 Z" id="Path"></path>
            <g id="flame" transform="translate(16.506897, 21.847892) rotate(29.000000) translate(-16.506897, -21.847892) translate(13.506897, 16.847892)">
                <path d="M3.20856389,2.65238875 C2.93242152,2.65238875 2.70856389,2.84056087 2.70856389,3.07268295 L2.70856389,9.23209454 C2.70856389,9.46421662 2.93242152,9.65238875 3.20856389,9.65238875 C3.48470627,9.65238875 3.70856389,9.46421662 3.70856389,9.23209454 L3.70856389,3.07268295 C3.70856389,2.84056087 3.48470627,2.65238875 3.20856389,2.65238875 Z" id="Path"></path>
                <path d="M0.920500092,1.32135289 C0.644357717,1.32135289 0.420500092,1.53056562 0.420500092,1.78864261 L0.420500092,4.85406317 C0.420500092,5.11214015 0.644357717,5.32135289 0.920500092,5.32135289 C1.19664247,5.32135289 1.42050009,5.11214015 1.42050009,4.85406317 L1.42050009,1.78864261 C1.42050009,1.53056562 1.19664247,1.32135289 0.920500092,1.32135289 Z" id="Path"></path>
                <path d="M4.99325063,0.678933228 C4.71710826,0.678933228 4.49325063,0.888145962 4.49325063,1.14622295 L4.49325063,4.21164351 C4.49325063,4.46972049 4.71710826,4.67893323 4.99325063,4.67893323 C5.26939301,4.67893323 5.49325063,4.46972049 5.49325063,4.21164351 L5.49325063,1.14622295 C5.49325063,0.888145962 5.26939301,0.678933228 4.99325063,0.678933228 Z" id="Path"></path>
            </g>
            <g id="flame" transform="translate(29.506898, 27.847893) rotate(25.000000) translate(-29.506898, -27.847893) translate(26.506898, 22.847893)">
                <path d="M3.20856389,2.65238875 C2.93242152,2.65238875 2.70856389,2.84056087 2.70856389,3.07268295 L2.70856389,9.23209454 C2.70856389,9.46421662 2.93242152,9.65238875 3.20856389,9.65238875 C3.48470627,9.65238875 3.70856389,9.46421662 3.70856389,9.23209454 L3.70856389,3.07268295 C3.70856389,2.84056087 3.48470627,2.65238875 3.20856389,2.65238875 Z" id="Path"></path>
                <path d="M0.920500092,1.32135289 C0.644357717,1.32135289 0.420500092,1.53056562 0.420500092,1.78864261 L0.420500092,4.85406317 C0.420500092,5.11214015 0.644357717,5.32135289 0.920500092,5.32135289 C1.19664247,5.32135289 1.42050009,5.11214015 1.42050009,4.85406317 L1.42050009,1.78864261 C1.42050009,1.53056562 1.19664247,1.32135289 0.920500092,1.32135289 Z" id="Path"></path>
                <path d="M4.99325063,0.678933228 C4.71710826,0.678933228 4.49325063,0.888145962 4.49325063,1.14622295 L4.49325063,4.21164351 C4.49325063,4.46972049 4.71710826,4.67893323 4.99325063,4.67893323 C5.26939301,4.67893323 5.49325063,4.46972049 5.49325063,4.21164351 L5.49325063,1.14622295 C5.49325063,0.888145962 5.26939301,0.678933228 4.99325063,0.678933228 Z" id="Path"></path>
            </g>
        </g>
    </g>
</svg>